<?xml version="1.0" standalone="no"?>
<!DOCTYPE svg PUBLIC "-//W3C//DTD SVG 20010904//EN"
 "http://www.w3.org/TR/2001/REC-SVG-20010904/DTD/svg10.dtd">
<svg version="1.0" xmlns="http://www.w3.org/2000/svg"
 width="700.000000pt" height="700.000000pt" viewBox="0 0 700.000000 700.000000"
 preserveAspectRatio="xMidYMid meet">
<metadata>
Created by potrace 1.11, written by Peter Selinger 2001-2013
</metadata>
<g transform="translate(0.000000,700.000000) scale(0.100000,-0.100000)"
fill="#000000" stroke="none">
<path d="M6892 6839 c-29 -4 -88 -10 -130 -13 -43 -4 -87 -8 -98 -10 -10 -2
-55 -7 -98 -11 -43 -4 -87 -8 -98 -10 -10 -2 -51 -7 -91 -10 -39 -3 -83 -8
-97 -10 -14 -2 -59 -6 -100 -10 -41 -3 -82 -8 -90 -10 -8 -2 -49 -7 -90 -10
-41 -3 -86 -8 -100 -10 -14 -2 -52 -7 -85 -10 -33 -3 -76 -8 -95 -10 -19 -2
-62 -7 -95 -10 -33 -3 -73 -7 -90 -9 -16 -2 -64 -7 -105 -11 -41 -3 -86 -8
-100 -10 -14 -2 -54 -6 -90 -10 -36 -3 -81 -8 -100 -10 -121 -14 -133 -15
-285 -30 -33 -3 -77 -8 -97 -10 -21 -3 -55 -7 -75 -10 -21 -2 -67 -7 -103 -10
-36 -4 -81 -8 -100 -10 -19 -2 -66 -7 -105 -11 -38 -3 -77 -8 -86 -9 -9 -2
-52 -6 -95 -10 -43 -4 -86 -9 -94 -10 -8 -1 -44 -6 -80 -9 -36 -4 -81 -9 -100
-11 -19 -2 -64 -7 -100 -10 -36 -3 -81 -8 -100 -10 -19 -2 -60 -7 -90 -10 -30
-3 -71 -8 -90 -10 -45 -5 -109 -12 -240 -25 -58 -6 -118 -12 -135 -15 -16 -2
-61 -7 -100 -10 -38 -4 -86 -8 -105 -11 -19 -2 -57 -6 -85 -9 -27 -3 -68 -7
-90 -10 -22 -2 -87 -9 -145 -15 -99 -10 -165 -17 -235 -25 -16 -2 -59 -6 -95
-9 -36 -4 -76 -9 -90 -11 -14 -2 -59 -7 -100 -11 -78 -7 -93 -8 -175 -18 -27
-3 -79 -8 -115 -12 -36 -3 -76 -7 -90 -9 -14 -1 -56 -6 -95 -9 -38 -4 -83 -9
-100 -11 -52 -7 -118 -14 -185 -20 -36 -3 -81 -8 -100 -11 -20 -2 -58 -6 -85
-9 -28 -2 -68 -6 -90 -9 -22 -2 -71 -8 -110 -12 -38 -3 -79 -8 -89 -10 -10 -2
-51 -6 -90 -9 -39 -3 -87 -8 -106 -10 -19 -2 -57 -6 -85 -9 -93 -10 -160 -17
-185 -21 -14 -2 -57 -6 -95 -10 -39 -3 -85 -8 -102 -10 -17 -2 -62 -7 -99 -11
-38 -4 -78 -8 -89 -10 -11 -1 -23 -3 -27 -3 -5 -1 -8 -1046 -8 -2323 l1 -2323
22 30 c81 110 232 272 367 395 58 52 289 222 380 280 320 200 682 341 1040
406 25 4 47 8 50 9 3 1 32 5 65 10 33 4 67 9 75 11 8 1 47 5 85 8 39 4 87 9
108 12 l39 5 -7 -48 c-3 -26 -9 -70 -13 -98 -11 -81 -6 -385 7 -445 20 -95 84
-340 87 -337 2 2 0 28 -5 58 -38 217 -47 626 -17 765 2 12 7 37 10 55 52 327
244 699 485 940 127 126 187 170 370 264 111 58 390 163 473 179 81 15 708
183 883 236 175 53 341 199 436 380 13 25 24 47 24 50 1 3 7 25 15 50 16 54
20 292 5 335 -43 131 -160 190 -356 181 -199 -9 -330 -70 -491 -228 -132 -129
-192 -171 -328 -231 -106 -47 -286 -71 -405 -54 -27 4 -66 9 -85 12 -69 9 -95
17 -167 50 -199 92 -289 223 -316 457 -5 39 3 51 38 61 11 3 65 21 120 41 102
37 131 43 121 27 -14 -22 -7 -119 12 -161 46 -107 145 -163 281 -159 136 4
225 50 332 170 248 281 434 401 723 469 126 30 336 41 476 25 126 -14 310 -70
395 -120 113 -67 235 -226 287 -374 74 -212 95 -648 44 -936 -48 -269 -218
-831 -324 -1066 -11 -24 -41 -91 -67 -149 -26 -58 -65 -136 -86 -173 -22 -38
-39 -70 -39 -72 0 -2 -52 -91 -116 -197 -64 -106 -126 -209 -137 -228 -12 -19
-25 -36 -29 -38 -4 -2 -8 -8 -8 -13 0 -5 -12 -28 -27 -52 -14 -23 -36 -58 -49
-77 -12 -19 -108 -174 -214 -344 -106 -169 -252 -397 -324 -505 -73 -108 -137
-209 -144 -226 -25 -67 -120 -389 -147 -499 -9 -38 -21 -80 -25 -92 -10 -26
-1 -29 105 -39 33 -3 78 -8 100 -10 22 -3 63 -8 90 -10 46 -4 72 -7 175 -20
19 -2 62 -7 95 -10 33 -3 71 -8 85 -10 14 -2 54 -7 90 -10 36 -3 74 -7 86 -9
11 -2 58 -7 105 -11 46 -4 86 -8 89 -10 3 -1 41 -6 84 -10 43 -4 87 -8 97 -10
9 -2 50 -6 91 -10 40 -3 80 -8 88 -10 8 -2 47 -6 85 -10 39 -3 81 -7 95 -10
14 -2 50 -7 80 -9 111 -11 176 -17 200 -21 14 -2 72 -9 130 -15 104 -11 129
-13 225 -25 28 -3 70 -8 95 -10 25 -2 83 -9 130 -14 47 -6 110 -13 140 -16 30
-3 74 -8 98 -10 23 -3 61 -7 85 -10 23 -2 67 -7 97 -10 30 -4 69 -8 86 -10 17
-3 56 -7 87 -10 l57 -6 0 3350 0 3351 -27 -2 c-16 -1 -52 -5 -81 -9z"/>
</g>
</svg>
